<?xml version="1.0" encoding="iso-8859-1"?>
<!-- Generator: Adobe Illustrator 19.0.0, SVG Export Plug-In . SVG Version: 6.00 Build 0)  -->
<svg version="1.1" id="Capa_1" xmlns="http://www.w3.org/2000/svg" xmlns:xlink="http://www.w3.org/1999/xlink" x="0px" y="0px"
	 viewBox="0 0 512 512" style="enable-background:new 0 0 512 512;" xml:space="preserve">
<g>
	<path style="fill:#FBDD56;" d="M492.557,188.675c19.489,19.489,0.952,69.625-25.958,96.536c-19.489,19.489-51.088,19.489-70.577,0
		c-19.489-19.489-19.489-51.088,0-70.577C422.932,187.723,473.068,169.186,492.557,188.675z"/>
	<path style="fill:#FBDD56;" d="M19.442,188.675C-0.047,208.164,18.49,258.3,45.4,285.211c19.489,19.489,51.088,19.489,70.577,0
		s19.489-51.088,0-70.577C89.067,187.723,38.931,169.186,19.442,188.675z"/>
</g>
<path style="opacity:0.1;enable-background:new    ;" d="M492.557,188.675c19.489,19.489,0.952,69.625-25.958,96.536
	c-19.489,19.489-51.088,19.489-70.577,0c-19.489-19.489-19.489-51.088,0-70.577C422.932,187.723,473.068,169.186,492.557,188.675z"
	/>
<path style="opacity:0.1;enable-background:new    ;" d="M19.442,188.675C-0.047,208.164,18.49,258.3,45.4,285.211
	c19.489,19.489,51.088,19.489,70.577,0s19.489-51.088,0-70.577C89.067,187.723,38.931,169.186,19.442,188.675z"/>
<path style="fill:#FBDD56;" d="M256,0L256,0C149.437,0,67.148,93.664,80.869,199.339l17.617,135.688
	C108.763,414.179,176.183,473.411,256,473.411l0,0c79.816,0,147.236-59.232,157.513-138.384l17.617-135.688
	C444.851,93.664,362.563,0,256,0z"/>
<g>
	<ellipse style="fill:#FFA6BB;" cx="164.34" cy="176.2" rx="33.82" ry="26.933"/>
	<ellipse style="fill:#FFA6BB;" cx="347.66" cy="176.2" rx="33.82" ry="26.933"/>
</g>
<g>
	<path style="fill:#414B58;" d="M169.995,151.903c-4.142,0-7.5-3.357-7.5-7.5v-14.517c0-4.143,3.358-7.5,7.5-7.5s7.5,3.357,7.5,7.5
		v14.517C177.495,148.546,174.137,151.903,169.995,151.903z"/>
	<path style="fill:#414B58;" d="M342.005,151.903c-4.142,0-7.5-3.357-7.5-7.5v-14.517c0-4.143,3.358-7.5,7.5-7.5s7.5,3.357,7.5,7.5
		v14.517C349.505,148.546,346.147,151.903,342.005,151.903z"/>
</g>
<path style="opacity:0.05;enable-background:new    ;" d="M221.656,3.326C132.423,20.854,68.665,105.343,80.869,199.339
	l17.617,135.688C108.763,414.179,176.183,473.411,256,473.411l0,0c12.327,0,24.357-1.417,35.928-4.098
	C135.72,352.36,83.567,102.139,221.656,3.326z"/>
<path style="fill:#EAEAEA;" d="M482.472,237.845l-73.052,38.413c-9.218,4.847-20.206,4.959-29.521,0.3L278.701,225.94
	c-14.29-7.148-31.112-7.148-45.402,0l-101.198,50.617c-9.315,4.659-20.303,4.547-29.521-0.3l-73.052-38.413
	C16.113,230.791,0.006,240.516,0,255.672V256c0,141.385,114.615,256,256,256s256-114.615,256-256v-0.328
	C511.994,240.516,495.887,230.791,482.472,237.845z"/>
<path style="opacity:0.1;enable-background:new    ;" d="M160.963,262.121l-28.862,14.436c-9.315,4.659-20.303,4.547-29.521-0.3
	l-73.052-38.413C16.113,230.791,0.006,240.516,0,255.672V256c0,141.385,114.615,256,256,256c51.627,0,99.675-15.297,139.886-41.584
	C247.404,492.945,181.677,390.987,160.963,262.121z"/>
<g style="opacity:0.1;">
	<circle cx="123.14" cy="340.34" r="7.383"/>
	<circle cx="86.75" cy="356.79" r="7.383"/>
	<circle cx="164.34" cy="453.63" r="7.383"/>
	<circle cx="398.63" cy="340.34" r="7.383"/>
	<circle cx="425.25" cy="381.13" r="7.383"/>
</g>
<path style="fill:#C27C59;" d="M250.648,129.331l-22.985,31.307c-3.613,4.921-2.712,11.813,2.043,15.641l15.943,12.833
	c6.044,4.865,14.66,4.865,20.703,0l15.943-12.833c4.755-3.828,5.655-10.72,2.043-15.641l-22.985-31.307
	C258.699,125.717,253.301,125.717,250.648,129.331z"/>
<path style="opacity:0.1;enable-background:new    ;" d="M253.634,127.06c-1.143,0.433-2.19,1.186-2.987,2.271l-22.985,31.307
	c-3.613,4.92-2.712,11.813,2.043,15.641l15.943,12.833c4.512,3.632,10.458,4.55,15.697,2.758
	C243.474,185.552,248.453,147.138,253.634,127.06z"/>
<g>
</g>
<g>
</g>
<g>
</g>
<g>
</g>
<g>
</g>
<g>
</g>
<g>
</g>
<g>
</g>
<g>
</g>
<g>
</g>
<g>
</g>
<g>
</g>
<g>
</g>
<g>
</g>
<g>
</g>
</svg>
