<?xml version="1.0"?>
<svg xmlns="http://www.w3.org/2000/svg" xmlns:xlink="http://www.w3.org/1999/xlink" xmlns:svgjs="http://svgjs.com/svgjs" version="1.1" width="512" height="512" x="0" y="0" viewBox="0 0 511 511.99854" style="enable-background:new 0 0 512 512" xml:space="preserve" class=""><g><path xmlns="http://www.w3.org/2000/svg" d="m391.898438 220.722656 21.355468-25.671875c10.066406-12.109375 6.9375-31.390625-6.984375-42.972656-4.65625-3.875-9.949219-6.28125-15.296875-7.480469 4.21875-6.253906 6.285156-13.632812 5.585938-21.25-.804688-8.734375-4.960938-16.636718-11.707032-22.246094-13.90625-11.574218-34.667968-9.679687-46.265624 4.242188l-8.84375 10.636719c-1.921876-5.242188-5.074219-10.105469-9.664063-13.925781-6.863281-5.710938-15.382813-8.109376-23.644531-7.445313-1.765625-9.644531-7.742188-18.25-16.542969-23.046875-7.699219-4.1875-16.582031-5.132812-25-2.65625-8.414063 2.476562-15.359375 8.089844-19.558594 15.796875l-6.617187 12.144531c-2.902344-4.769531-6.9375-8.929687-12.1875-11.789062-15.894532-8.648438-35.898438-2.773438-44.5625 13.144531l-34.488282 63.324219c-12.261718-2.730469-25.570312-.710938-36.84375 6.761718-3.972656 2.625-6.679687 6.652344-7.625 11.324219-.949218 4.671875-.023437 9.429688 2.613282 13.402344l13.5625 20.472656-1.203125 2.203125-26.199219-22.757812c-18.566406-18.753906-48.925781-18.90625-67.675781-.339844-3.390625 3.347656-5.269531 7.824219-5.289063 12.59375-.023437 4.769531 1.808594 9.257812 5.160156 12.640625l19.308594 19.503906c25.789063 26.050781 30.414063 33.9375 25.488282 65.742188l-5.9375 35.28125c-1.878907-.96875-4.050782-1.207031-6.082032-.605469-2.101562.617188-3.871094 2.042969-4.921875 3.96875l-40.328125 74.050781c-1.046875 1.925781-1.285156 4.183594-.667968 6.285157.617187 2.101562 2.046874 3.871093 3.96875 4.921874l154.277343 84.019532c1.226563.664062 2.582031 1.003906 3.949219 1.003906.78125 0 1.570312-.113281 2.335938-.339844 2.101562-.617187 3.867187-2.046875 4.917968-3.972656l2.976563-5.46875 7.851562 6.535156c1.546875 1.285156 3.414063 1.910156 5.277344 1.910156 2.367187 0 4.71875-1.011718 6.351563-2.976562l53.925781-64.824219c1.402343-1.683593 2.078125-3.851562 1.875-6.035156-.199219-2.179687-1.257813-4.191406-2.9375-5.59375l-.738281-.609375 13.738281-16.519531c16.644531.621093 32.816406-6.480469 43.636719-19.488281l105.40625-126.710938c10.339843-12.433594 8.640624-30.96875-3.800782-41.320312-3.582031-2.984376-7.691406-4.851563-11.949218-5.863282zm-142.058594-128.121094c4.300781-7.910156 14.246094-10.855468 22.152344-6.535156 5.246093 2.851563 8.417968 8.429688 8.429687 14.363282-2.390625 1.65625-4.664063 3.527343-6.609375 5.871093l-85.558594 102.84375-1.109375-1.429687zm-63.367188 13.503907c4.308594-7.921875 14.25-10.851563 22.160156-6.542969 7.910157 4.316406 10.84375 14.257812 6.53125 22.167969l-.628906 1.160156-38.449218 70.59375-9.117188-11.738281c-3.808594-5.746094-8.671875-10.375-14.144531-13.863282zm-141.445312 119.609375-19.3125-19.507813c-.441406-.441406-.4375-1.433593.011718-1.871093 5.945313-5.890626 13.558594-9.199219 22.207032-9.074219 8.375.042969 16.226562 3.34375 22.566406 9.714843l34.402344 29.914063c1.890625 1.644531 4.421875 2.328125 6.882812 1.894531 2.464844-.445312 4.59375-1.980468 5.785156-4.175781l1.773438-3.253906c12.25 20.484375 12.878906 30.710937 3.691406 55.972656l-12.664062 33.460937c-3.503906-2.761718-8.570313-2.285156-11.441406 1.164063l-24.878907 29.90625-5.863281-3.191406 6.890625-40.960938c5.824219-37.574219-1.171875-50.820312-30.050781-79.992187zm114.707031 266.824218-139.773437-76.121093 32.179687-59.085938c.714844 1.015625 1.582031 1.929688 2.71875 2.550781l7.46875 4.070313-17.328125 20.828125c-1.402344 1.683594-2.074219 3.855469-1.875 6.035156.199219 2.183594 1.257812 4.195313 2.941406 5.59375l114.257813 95.046875zm25.597656-1.761718-122.355469-101.785156 43.03125-51.71875c.503907 1.132812 1.175782 2.199218 2.171876 3.027343l118.847656 98.863281c.253906.210938.570312.304688.84375.484376zm209.621094-233.433594-105.402344 126.707031c-8.210937 9.875-20.796875 14.824219-33.570312 13.296875-2.8125-.359375-5.550781.765625-7.339844 2.914063l-16.464844 19.796875-108.363281-90.140625 14.703125-38.847657c13-35.730468 8.707031-50.078124-13.976563-84.300781l-15.152343-22.878906c-.347657-.523437-.152344-1.496094.371093-1.84375 6.976563-4.628906 15.34375-6.257813 23.546876-4.585937 8.207031 1.664062 15.269531 6.421874 20.253906 13.90625l17.269531 22.246093c.015625.019531.027344.035157.039063.054688l10.644531 13.714843c1.535156 1.976563 3.882812 3.148438 6.382812 3.195313 2.378907-.179687 4.886719-1.058594 6.488281-2.976563l92.125-110.742187c2.789063-3.351563 6.714844-5.421875 11.0625-5.820313 4.386719-.410156 8.589844.921876 11.941407 3.707032 6.914062 5.753906 7.863281 16.066406 2.125 22.988281l-.015625.015625c0 .003906 0 .007812-.003906.011719l-47.179688 56.714843c-2.917969 3.507813-2.441406 8.710938 1.0625 11.628907 3.503906 2.921875 8.707031 2.449219 11.628906-1.066407l47.1875-56.71875c.015625-.015624.019532-.035156.03125-.050781l26.925782-32.367187c5.761718-6.929688 16.089843-7.875 23.007812-2.109375 3.355469 2.792969 5.425781 6.71875 5.824219 11.0625.398437 4.34375-.921875 8.582031-3.710938 11.9375l-12.902343 15.511719c-.238282.261718-.53125.449218-.761719.726562-.136719.164062-.167969.367188-.292969.539062l-78.164062 93.96875c-2.917969 3.507813-2.441407 8.710938 1.066406 11.628907 1.542968 1.285156 3.414062 1.910156 5.277344 1.910156 2.363281 0 4.714843-1.011719 6.347656-2.976563l79.078125-95.066406c4.402343-4.359375 13.144531-3.6875 19.65625 1.734375 6.804687 5.664063 9.027343 14.695313 4.851562 19.71875l-58.355469 70.148438-.539062.644531c-.003906.003906-.003906.007812-.011719.011719l-17.980469 21.621093c-2.917968 3.507813-2.441406 8.710938 1.066407 11.625 1.542969 1.285157 3.414062 1.914063 5.277343 1.914063 2.363282 0 4.714844-1.011719 6.347657-2.976563l17.949219-21.574218c0-.003906.007812-.003906.011718-.007813l20.910156-24.953125c4.527344-5.433594 12.613282-6.1875 18.058594-1.664062 5.441406 4.527344 6.1875 12.632812 1.667969 18.066406zm0 0" fill="#234382" data-original="#000000" style="" class=""/><path xmlns="http://www.w3.org/2000/svg" d="m109.441406 370.617188c-7.730468.710937-13.421875 7.554687-12.710937 15.28125.710937 7.730468 7.546875 13.421874 15.277343 12.710937 7.734376-.710937 13.421876-7.550781 12.710938-15.28125s-7.550781-13.421875-15.277344-12.710937zm0 0" fill="#234382" data-original="#000000" style="" class=""/><path xmlns="http://www.w3.org/2000/svg" d="m93.472656 78.167969 50.238282 16.480469c.855468.28125 1.722656.414062 2.574218.414062 3.46875 0 6.703125-2.207031 7.84375-5.6875 1.421875-4.332031-.9375-8.996094-5.273437-10.417969l-50.238281-16.484375c-4.339844-1.414062-8.992188.945313-10.417969 5.273438-1.425781 4.332031.941406 9 5.273437 10.421875zm0 0" fill="#234382" data-original="#000000" style="" class=""/><path xmlns="http://www.w3.org/2000/svg" d="m151.066406 63.941406c1.585938 2.421875 4.226563 3.738282 6.921875 3.738282 1.546875 0 3.117188-.433594 4.511719-1.34375 3.8125-2.496094 4.886719-7.613282 2.390625-11.429688l-22.59375-34.554688c-2.492187-3.808593-7.605469-4.890624-11.429687-2.390624-3.8125 2.496093-4.886719 7.613281-2.390626 11.429687zm0 0" fill="#234382" data-original="#000000" style="" class=""/><path xmlns="http://www.w3.org/2000/svg" d="m186.058594 67.773438c.574218.117187 1.140625.175781 1.699218.175781 3.828126 0 7.257813-2.675781 8.078126-6.566407l10.765624-51.433593c.929688-4.46875-1.929687-8.84375-6.390624-9.777344-4.496094-.914063-8.84375 1.925781-9.777344 6.390625l-10.765625 51.433594c-.933594 4.46875 1.925781 8.84375 6.390625 9.777344zm0 0" fill="#234382" data-original="#000000" style="" class=""/></g></svg>
