<?xml version="1.0" encoding="iso-8859-1"?>
<!-- Generator: Adobe Illustrator 19.0.0, SVG Export Plug-In . SVG Version: 6.00 Build 0)  -->
<svg version="1.1" id="Capa_1" xmlns="http://www.w3.org/2000/svg" xmlns:xlink="http://www.w3.org/1999/xlink" x="0px" y="0px"
	 viewBox="0 0 512 512" style="enable-background:new 0 0 512 512;" xml:space="preserve">
<path style="fill:#FBDD56;" d="M230.749,512h-24.298c-9.525,0-17.247-7.722-17.247-17.247v-114.08
	c0-9.525,7.722-17.247,17.247-17.247s17.247,7.722,17.247,17.247v96.833h7.051c9.525,0,17.247,7.722,17.247,17.247
	C247.995,504.278,240.273,512,230.749,512z"/>
<path style="opacity:0.1;enable-background:new    ;" d="M230.749,512h-24.298c-9.525,0-17.247-7.722-17.247-17.247v-114.08
	c0-9.525,7.722-17.247,17.247-17.247s17.247,7.722,17.247,17.247v96.833h7.051c9.525,0,17.247,7.722,17.247,17.247
	C247.995,504.278,240.273,512,230.749,512z"/>
<g>
	<path style="fill:#FBDD56;" d="M279.911,468.265c-5.152,0.001-10.248-2.297-13.647-6.685l-6.396-8.256h-96.162
		c-5.963,0-11.503-3.08-14.651-8.146c-3.146-5.066-3.453-11.398-0.809-16.744l45.233-91.5c4.22-8.538,14.56-12.038,23.103-7.818
		c8.539,4.221,12.039,14.565,7.817,23.104l-32.928,66.61h76.853c5.333,0,10.368,2.468,13.635,6.685l11.574,14.941
		c5.833,7.53,4.458,18.363-3.073,24.196C287.319,467.086,283.601,468.265,279.911,468.265z"/>
	<path style="fill:#FBDD56;" d="M380.244,58.741c45.15-7.884,120.037-3.589,102.299,83.315c-1.769,8.667-12.058,12.303-18.919,6.719
		c-20.991-17.085-44.614-26.077-82.871-6.117L380.244,58.741z"/>
</g>
<path style="opacity:0.1;enable-background:new    ;" d="M410.447,56.034c-10.611,0.004-21.022,1.103-30.202,2.706l0.509,83.917
	c21.416-11.174,38.245-13.27,52.594-9.958C412.369,111.071,409.211,67.741,410.447,56.034z"/>
<path style="fill:#FFA6BB;" d="M407.025,90.354C407.025,40.453,367.941,0,311.856,0c-56.084,0-101.55,40.453-101.55,90.354
	c-1.164,33.768,20.537,83.159,41.316,118.526c0.011,0.019,0.022,0.038,0.033,0.057c1.375,2.34-0.442,5.243-3.15,5.058
	c-32.137-2.198-140.645,19.886-206.117,77.778c-17.658,17.83-20.791,43.357-6.999,57.017c11.137,11.03,29.902,10.947,46.012,1.121
	c1.421-0.867,3.2-0.868,4.625-0.008c1.792,1.083,3.663,2.064,5.608,2.933l62.657,27.981c39.762,17.757,84.271,21.905,126.63,11.803
	l0,0c40.203-9.589,68.571-45.517,68.571-86.848l0,0c0-0.009,0-0.018,0-0.027c-0.01-43.306-24.143-85.169-42.686-116.489
	c-2.251-3.802,0.526-8.551,4.945-8.547c0.035,0,0.07,0,0.105,0C367.941,180.708,407.025,140.255,407.025,90.354z"/>
<path style="opacity:0.05;enable-background:new    ;" d="M163.384,228.667c-40.713,12.336-86.742,32.817-120.996,63.105
	c-17.658,17.83-20.792,43.357-6.999,57.017c11.137,11.03,29.902,10.947,46.012,1.121c1.421-0.867,3.2-0.868,4.625-0.008
	c1.793,1.083,3.663,2.064,5.608,2.933l62.657,27.981c39.762,17.757,84.271,21.905,126.63,11.803l0,0
	c1.05-0.25,2.088-0.529,3.121-0.815C143.939,378.553,138.997,259.215,163.384,228.667z"/>
<path style="fill:#596675;" d="M471.75,77.45c-21.995,13.034-28.836,38.102-29.949,57.921c7.844,3.132,14.99,7.852,21.855,13.437
	c6.83,5.557,17.113,1.927,18.876-6.7C488.866,111.117,483.42,90.633,471.75,77.45z"/>
<ellipse style="fill:#FF6E6E;" cx="313.81" cy="99.42" rx="24.19" ry="19.264"/>
<path style="fill:#414B58;" d="M347.815,86.527c-4.143,0-7.5-3.358-7.5-7.5c0-5.238-4.262-9.5-9.5-9.5
	c-5.237,0-9.499,4.261-9.499,9.5c0,4.142-3.357,7.5-7.5,7.5s-7.5-3.358-7.5-7.5c0-13.509,10.99-24.5,24.499-24.5
	c13.51,0,24.5,10.99,24.5,24.5C355.315,83.169,351.957,86.527,347.815,86.527z"/>
<path style="fill:#F985AC;" d="M259.686,274.768c-8.768-12.859-24.887-17.14-36.001-9.561c-4.177,2.848-7.052,6.967-8.55,11.681
	c-8.857-6.755-20.4-7.969-28.971-2.125c-4.177,2.849-7.053,6.967-8.55,11.681c-8.857-6.755-20.4-7.969-28.97-2.125
	c-11.115,7.579-14.012,24.885-4.248,37.006c14.443,17.929,52.902,34.336,87.129,25.619
	C269.961,337.154,283.958,304.417,259.686,274.768z"/>
<g>
</g>
<g>
</g>
<g>
</g>
<g>
</g>
<g>
</g>
<g>
</g>
<g>
</g>
<g>
</g>
<g>
</g>
<g>
</g>
<g>
</g>
<g>
</g>
<g>
</g>
<g>
</g>
<g>
</g>
</svg>
