<svg width="121" height="31" viewBox="0 0 121 31" fill="none" xmlns="http://www.w3.org/2000/svg">
<path d="M6.534 8.534C7.282 8.534 8.096 8.578 8.976 8.666C9.856 8.73933 10.714 8.89333 11.55 9.128L11.33 11.372C10.6847 11.3427 9.922 11.3207 9.042 11.306C8.17667 11.2913 7.33333 11.284 6.512 11.284C5.96933 11.284 5.52933 11.3133 5.192 11.372C4.86933 11.4307 4.63467 11.5627 4.488 11.768C4.356 11.9587 4.29 12.2813 4.29 12.736C4.29 13.264 4.40733 13.6453 4.642 13.88C4.89133 14.1147 5.30933 14.32 5.896 14.496L8.822 15.442C10.0247 15.8673 10.8607 16.432 11.33 17.136C11.814 17.8253 12.056 18.742 12.056 19.886C12.056 21.0447 11.8727 21.9467 11.506 22.592C11.1393 23.2227 10.538 23.6627 9.702 23.912C8.88067 24.1613 7.78067 24.286 6.402 24.286C5.90333 24.286 5.192 24.2493 4.268 24.176C3.344 24.1173 2.29533 23.956 1.122 23.692L1.32 21.316C2.62533 21.36 3.66667 21.3893 4.444 21.404C5.236 21.4187 5.88867 21.426 6.402 21.426C7.282 21.426 7.88333 21.338 8.206 21.162C8.52867 20.9713 8.69 20.5607 8.69 19.93C8.69 19.3873 8.57267 19.006 8.338 18.786C8.118 18.566 7.744 18.3753 7.216 18.214L4.136 17.158C2.96267 16.7473 2.134 16.1973 1.65 15.508C1.18067 14.8187 0.946 13.902 0.946 12.758C0.946 11.5993 1.12933 10.7193 1.496 10.118C1.87733 9.502 2.47867 9.084 3.3 8.864C4.12133 8.644 5.19933 8.534 6.534 8.534ZM25.7606 8.82V11.46H21.1846V24H17.8406V11.46H13.2646V8.82H25.7606ZM39.787 8.82V17.95C39.787 19.49 39.589 20.7293 39.193 21.668C38.8117 22.592 38.1883 23.2593 37.323 23.67C36.4577 24.0807 35.299 24.286 33.847 24.286C32.307 24.286 31.075 24.0807 30.151 23.67C29.227 23.2593 28.5597 22.592 28.149 21.668C27.753 20.7293 27.555 19.49 27.555 17.95V8.82H30.899V17.95C30.899 18.9033 30.9797 19.6513 31.141 20.194C31.317 20.722 31.603 21.096 31.999 21.316C32.4097 21.536 32.967 21.646 33.671 21.646C34.3603 21.646 34.903 21.536 35.299 21.316C35.7097 21.096 36.003 20.722 36.179 20.194C36.355 19.6513 36.443 18.9033 36.443 17.95V8.82H39.787ZM48.687 8.6C50.2857 8.6 51.5544 8.83467 52.493 9.304C53.4464 9.77333 54.1357 10.5727 54.561 11.702C54.9864 12.8313 55.199 14.4007 55.199 16.41C55.199 18.4193 54.9864 19.9887 54.561 21.118C54.1357 22.2473 53.4464 23.0467 52.493 23.516C51.5544 23.9707 50.2857 24.198 48.687 24.198C47.5284 24.198 46.465 24.176 45.497 24.132C44.529 24.1027 43.6124 24.0587 42.747 24V8.82C43.627 8.76133 44.5437 8.71 45.497 8.666C46.4504 8.622 47.5137 8.6 48.687 8.6ZM48.687 11.174C48.203 11.174 47.741 11.174 47.301 11.174C46.8757 11.174 46.4724 11.1813 46.091 11.196V21.602C46.883 21.6167 47.7484 21.624 48.687 21.624C49.4497 21.624 50.0437 21.4773 50.469 21.184C50.8944 20.876 51.195 20.3407 51.371 19.578C51.5617 18.8153 51.657 17.7593 51.657 16.41C51.657 15.0607 51.5617 14.0047 51.371 13.242C51.195 12.4793 50.8944 11.944 50.469 11.636C50.0437 11.328 49.4497 11.174 48.687 11.174ZM69.194 8.82L64.156 18.962V24H60.812V18.962L55.774 8.82H59.25L61.802 14.408C61.934 14.716 62.044 15.0387 62.132 15.376C62.22 15.6987 62.3006 16.014 62.374 16.322H62.594C62.6673 16.014 62.748 15.6913 62.836 15.354C62.9386 15.0167 63.0486 14.7013 63.166 14.408L65.718 8.82H69.194ZM76.3395 8.512C77.5422 8.512 78.5542 8.644 79.3755 8.908C80.2115 9.15733 80.8862 9.58267 81.3995 10.184C81.9128 10.7853 82.2868 11.592 82.5215 12.604C82.7562 13.616 82.8735 14.8847 82.8735 16.41C82.8735 17.9353 82.7562 19.204 82.5215 20.216C82.2868 21.228 81.9128 22.0347 81.3995 22.636C80.8862 23.2373 80.2115 23.6627 79.3755 23.912C78.5542 24.1613 77.5422 24.286 76.3395 24.286C75.1368 24.286 74.1175 24.1613 73.2815 23.912C72.4455 23.6627 71.7708 23.2373 71.2575 22.636C70.7442 22.0347 70.3702 21.228 70.1355 20.216C69.9155 19.204 69.8055 17.9353 69.8055 16.41C69.8055 14.8847 69.9155 13.616 70.1355 12.604C70.3702 11.592 70.7442 10.7853 71.2575 10.184C71.7708 9.58267 72.4455 9.15733 73.2815 8.908C74.1175 8.644 75.1368 8.512 76.3395 8.512ZM76.3395 11.152C75.5622 11.152 74.9535 11.306 74.5135 11.614C74.0882 11.922 73.7802 12.4573 73.5895 13.22C73.4135 13.9827 73.3255 15.046 73.3255 16.41C73.3255 17.774 73.4135 18.8373 73.5895 19.6C73.7802 20.3627 74.0882 20.898 74.5135 21.206C74.9535 21.4993 75.5622 21.646 76.3395 21.646C77.1022 21.646 77.7035 21.4993 78.1435 21.206C78.5835 20.898 78.8915 20.3627 79.0675 19.6C79.2435 18.8373 79.3315 17.774 79.3315 16.41C79.3315 15.046 79.2435 13.9827 79.0675 13.22C78.8915 12.4573 78.5835 11.922 78.1435 11.614C77.7035 11.306 77.1022 11.152 76.3395 11.152Z" fill="#234382"/>
<rect x="87" y="7" width="34" height="15" rx="2" fill="#234382"/>
<path d="M87 28L87 20L96 20L87 28Z" fill="#234382"/>
</svg>
