<svg id="Layer_1" data-name="Layer 1" xmlns="http://www.w3.org/2000/svg" viewBox="0 0 121 31"><defs><style>.cls-1{fill:#fff;}</style></defs><path class="cls-1" d="M6.53,8.53A24.32,24.32,0,0,1,9,8.67a13.06,13.06,0,0,1,2.57.46l-.22,2.24c-.65,0-1.41,0-2.29-.06l-2.53,0a7.86,7.86,0,0,0-1.32.09,1,1,0,0,0-.7.4,1.78,1.78,0,0,0-.2,1,1.59,1.59,0,0,0,.35,1.14,3.33,3.33,0,0,0,1.26.62l2.92.94a4.84,4.84,0,0,1,2.51,1.7,4.71,4.71,0,0,1,.73,2.75,5.58,5.58,0,0,1-.55,2.7A3,3,0,0,1,9.7,23.91a11.67,11.67,0,0,1-3.3.38c-.5,0-1.21,0-2.13-.11a20,20,0,0,1-3.15-.49l.2-2.37,3.12.08,2,0a4.17,4.17,0,0,0,1.81-.27q.48-.29.48-1.23a1.54,1.54,0,0,0-.35-1.14,2.88,2.88,0,0,0-1.12-.58L4.14,17.16a4.86,4.86,0,0,1-2.49-1.65A4.81,4.81,0,0,1,1,12.76a5.09,5.09,0,0,1,.55-2.64A2.88,2.88,0,0,1,3.3,8.86,12.87,12.87,0,0,1,6.53,8.53Zm19.23.29v2.64H21.18V24H17.84V11.46H13.26V8.82Zm14,0V18a9.64,9.64,0,0,1-.6,3.72,3.67,3.67,0,0,1-1.87,2,8.16,8.16,0,0,1-3.47.62,9.28,9.28,0,0,1-3.7-.62,3.83,3.83,0,0,1-2-2A9.66,9.66,0,0,1,27.56,18V8.82H30.9V18a8.24,8.24,0,0,0,.24,2.24A1.91,1.91,0,0,0,32,21.32a3.56,3.56,0,0,0,1.67.33,3.39,3.39,0,0,0,1.63-.33,1.9,1.9,0,0,0,.88-1.13A7.75,7.75,0,0,0,36.44,18V8.82Zm8.9-.22a8.56,8.56,0,0,1,3.8.7,4.14,4.14,0,0,1,2.07,2.4,13.71,13.71,0,0,1,.64,4.71,13.71,13.71,0,0,1-.64,4.71,4.14,4.14,0,0,1-2.07,2.4,8.88,8.88,0,0,1-3.8.68c-1.16,0-2.22,0-3.19-.07s-1.89-.07-2.75-.13V8.82c.88-.06,1.79-.11,2.75-.15S47.51,8.6,48.69,8.6Zm0,2.57H47.3c-.42,0-.83,0-1.21,0V21.6c.79,0,1.66,0,2.6,0a3.07,3.07,0,0,0,1.78-.44,2.63,2.63,0,0,0,.9-1.6,13.7,13.7,0,0,0,.29-3.17,13.7,13.7,0,0,0-.29-3.17,2.63,2.63,0,0,0-.9-1.6A3,3,0,0,0,48.69,11.17Zm20.5-2.35L64.16,19v5H60.81V19l-5-10.14h3.48l2.55,5.59a7.37,7.37,0,0,1,.33,1c.09.32.17.63.24.94h.22l.25-1c.1-.33.21-.65.33-.94l2.55-5.59Zm7.15-.31a9.91,9.91,0,0,1,3,.4,4.15,4.15,0,0,1,2,1.27,5.67,5.67,0,0,1,1.12,2.42,17,17,0,0,1,.35,3.81,17,17,0,0,1-.35,3.81,5.67,5.67,0,0,1-1.12,2.42,4.15,4.15,0,0,1-2,1.27,10.63,10.63,0,0,1-3,.38,10.82,10.82,0,0,1-3.06-.38,4.15,4.15,0,0,1-2-1.27,5.55,5.55,0,0,1-1.12-2.42,18.4,18.4,0,0,1-.33-3.81,18.4,18.4,0,0,1,.33-3.81,5.55,5.55,0,0,1,1.12-2.42,4.15,4.15,0,0,1,2-1.27A10.1,10.1,0,0,1,76.34,8.51Zm0,2.64a3.21,3.21,0,0,0-1.83.46,2.76,2.76,0,0,0-.92,1.61,14.73,14.73,0,0,0-.26,3.19,14.73,14.73,0,0,0,.26,3.19,2.76,2.76,0,0,0,.92,1.61,3.3,3.3,0,0,0,1.83.44,3.24,3.24,0,0,0,1.8-.44,2.62,2.62,0,0,0,.93-1.61,15.4,15.4,0,0,0,.26-3.19,15.4,15.4,0,0,0-.26-3.19,2.62,2.62,0,0,0-.93-1.61A3.15,3.15,0,0,0,76.34,11.15Z"/><rect class="cls-1" x="87" y="7" width="34" height="15" rx="2"/><path class="cls-1" d="M87,28V20h9Z"/></svg>